<mxfile host="app.diagrams.net" modified="2023-10-23T18:32:07.260Z" agent="Mozilla/5.0 (Windows NT 10.0; Win64; x64) AppleWebKit/537.36 (KHTML, like Gecko) Chrome/116.0.5845.888 YaBrowser/23.9.2.888 Yowser/2.5 Safari/537.36" etag="PPcFxNHazSrSCyacEY8g" version="22.0.6" type="github">
  <diagram id="C5RBs43oDa-KdzZeNtuy" name="Page-1">
    <mxGraphModel dx="1514" dy="849" grid="1" gridSize="10" guides="1" tooltips="1" connect="1" arrows="1" fold="1" page="1" pageScale="1" pageWidth="1169" pageHeight="1654" math="0" shadow="0">
      <root>
        <mxCell id="WIyWlLk6GJQsqaUBKTNV-0" />
        <mxCell id="WIyWlLk6GJQsqaUBKTNV-1" parent="WIyWlLk6GJQsqaUBKTNV-0" />
        <mxCell id="2bn0e7dq_g5QrtCXbVVx-0" value="Start" style="ellipse;whiteSpace=wrap;html=1;" vertex="1" parent="WIyWlLk6GJQsqaUBKTNV-1">
          <mxGeometry x="354" y="40" width="120" height="80" as="geometry" />
        </mxCell>
        <mxCell id="2bn0e7dq_g5QrtCXbVVx-1" value="Finish" style="ellipse;whiteSpace=wrap;html=1;" vertex="1" parent="WIyWlLk6GJQsqaUBKTNV-1">
          <mxGeometry x="354" y="710" width="120" height="80" as="geometry" />
        </mxCell>
        <mxCell id="2bn0e7dq_g5QrtCXbVVx-2" value="count" style="shape=document;whiteSpace=wrap;html=1;boundedLbl=1;" vertex="1" parent="WIyWlLk6GJQsqaUBKTNV-1">
          <mxGeometry x="354" y="610" width="120" height="80" as="geometry" />
        </mxCell>
        <mxCell id="2bn0e7dq_g5QrtCXbVVx-3" value="count = 0&lt;br&gt;distance = 10000&lt;br&gt;first_friend_speed = 1&lt;br&gt;second_friend_speed = 2&lt;br&gt;dog_speed = 5&lt;br&gt;friend = 2" style="rounded=0;whiteSpace=wrap;html=1;" vertex="1" parent="WIyWlLk6GJQsqaUBKTNV-1">
          <mxGeometry x="267" y="140" width="294" height="90" as="geometry" />
        </mxCell>
        <mxCell id="2bn0e7dq_g5QrtCXbVVx-8" style="edgeStyle=orthogonalEdgeStyle;rounded=0;orthogonalLoop=1;jettySize=auto;html=1;entryX=0;entryY=0.5;entryDx=0;entryDy=0;" edge="1" parent="WIyWlLk6GJQsqaUBKTNV-1" source="2bn0e7dq_g5QrtCXbVVx-4" target="2bn0e7dq_g5QrtCXbVVx-6">
          <mxGeometry relative="1" as="geometry" />
        </mxCell>
        <mxCell id="2bn0e7dq_g5QrtCXbVVx-10" value="да" style="edgeLabel;html=1;align=center;verticalAlign=middle;resizable=0;points=[];" vertex="1" connectable="0" parent="2bn0e7dq_g5QrtCXbVVx-8">
          <mxGeometry x="-0.3103" y="1" relative="1" as="geometry">
            <mxPoint as="offset" />
          </mxGeometry>
        </mxCell>
        <mxCell id="2bn0e7dq_g5QrtCXbVVx-4" value="distance &amp;gt; 10" style="rhombus;whiteSpace=wrap;html=1;" vertex="1" parent="WIyWlLk6GJQsqaUBKTNV-1">
          <mxGeometry x="336" y="260" width="156" height="110" as="geometry" />
        </mxCell>
        <mxCell id="2bn0e7dq_g5QrtCXbVVx-9" style="edgeStyle=orthogonalEdgeStyle;rounded=0;orthogonalLoop=1;jettySize=auto;html=1;entryX=0;entryY=0.5;entryDx=0;entryDy=0;" edge="1" parent="WIyWlLk6GJQsqaUBKTNV-1" source="2bn0e7dq_g5QrtCXbVVx-6" target="2bn0e7dq_g5QrtCXbVVx-7">
          <mxGeometry relative="1" as="geometry" />
        </mxCell>
        <mxCell id="2bn0e7dq_g5QrtCXbVVx-11" value="да" style="edgeLabel;html=1;align=center;verticalAlign=middle;resizable=0;points=[];" vertex="1" connectable="0" parent="2bn0e7dq_g5QrtCXbVVx-9">
          <mxGeometry x="0.1622" y="3" relative="1" as="geometry">
            <mxPoint as="offset" />
          </mxGeometry>
        </mxCell>
        <mxCell id="2bn0e7dq_g5QrtCXbVVx-14" style="edgeStyle=orthogonalEdgeStyle;rounded=0;orthogonalLoop=1;jettySize=auto;html=1;entryX=0.5;entryY=0;entryDx=0;entryDy=0;" edge="1" parent="WIyWlLk6GJQsqaUBKTNV-1" source="2bn0e7dq_g5QrtCXbVVx-6" target="2bn0e7dq_g5QrtCXbVVx-13">
          <mxGeometry relative="1" as="geometry" />
        </mxCell>
        <mxCell id="2bn0e7dq_g5QrtCXbVVx-15" value="нет" style="edgeLabel;html=1;align=center;verticalAlign=middle;resizable=0;points=[];" vertex="1" connectable="0" parent="2bn0e7dq_g5QrtCXbVVx-14">
          <mxGeometry x="-0.19" relative="1" as="geometry">
            <mxPoint as="offset" />
          </mxGeometry>
        </mxCell>
        <mxCell id="2bn0e7dq_g5QrtCXbVVx-6" value="friend == 1" style="rhombus;whiteSpace=wrap;html=1;" vertex="1" parent="WIyWlLk6GJQsqaUBKTNV-1">
          <mxGeometry x="550" y="260" width="156" height="110" as="geometry" />
        </mxCell>
        <mxCell id="2bn0e7dq_g5QrtCXbVVx-7" value="time = distance / (first_friend_speed + dog_speed)&lt;br&gt;friend = 2" style="rounded=0;whiteSpace=wrap;html=1;" vertex="1" parent="WIyWlLk6GJQsqaUBKTNV-1">
          <mxGeometry x="780" y="285" width="280" height="60" as="geometry" />
        </mxCell>
        <mxCell id="2bn0e7dq_g5QrtCXbVVx-13" value="time = distance / (second_friend_speed + dog_speed)&lt;br&gt;friend = 1" style="rounded=0;whiteSpace=wrap;html=1;" vertex="1" parent="WIyWlLk6GJQsqaUBKTNV-1">
          <mxGeometry x="488" y="410" width="280" height="60" as="geometry" />
        </mxCell>
      </root>
    </mxGraphModel>
  </diagram>
</mxfile>
